<?xml version="1.0" encoding="UTF-8"?>
<svg id="a" data-name="Livello 1" xmlns="http://www.w3.org/2000/svg" viewBox="0 0 968.13 841.86">
  <g isolation="isolate">
    <path d="M953.14,487.98c-.79,1.36-.98,6.1,0,3,.65-.15,2.48-3.29,0-3Zm0-16c.41,1.47-1.05,5.27,1,5-.41-1.47,1.05-5.27-1-5Zm1-18v2c.81-.11,2.16-2.18,0-2ZM8.14,482.98c-5.32-19.92-12.27-59.39-5.01-83,5.61-4.19,27.43-26.54,25.01,0-8.8,56.13,9.98,104.35,6,161-19.57-14.11-20.69-51.16-26-78ZM208.13,248.98c-15.12,28.71-51.35,69.18-38.01,101,14.93-24.17,18.83-50.42,31.01-76,8.39-10.27,14.02-19.81,18-30-6.4,4.18-8.46-6.06-11,5Zm194-22c-32.59,31.18-15.85,49.13-20.99,90,.5,17.2-55.03,43.01-30.02,53,12.37,2.43,7.56,17.67,9.01,27,12.28,2.15-.49,16.66,11,21,2.23,42.83,4.92,32.01,42.01,40,30.32,31.54,.3,128.05-29,153-65.65,47.45,65.63,112.72,112.99,36,20.17-26.24-36.07-44.02-30.99-90-1.96-151.12,61.36-224.57-64.01-330ZM92.13,174.98c-3.96,24.38-27.24,40.36-39.99,65-13.96,16.14-11.35,43.55-22,59,1.2,19.45,6.29,15.64,1.99,37,7.45,17.94-11.42,41.76-14.99,50-5.1-42.26-.53-102.75-2.01-152,12.76-30.22,45.74-56.08,77-59Zm421,2c-13.77,27.49-53.25-.74-71,13-6.7,4.2-25.95,14.37-22,23,18.39,17.84,34.04,42.74,51,63,82.19,87.38-39.39,250.03,43.99,333,30.32-17.36,61.31-33.68,96.01-38,14.27-14.93-10.83-31.06-11-48.01-23.07-38.57-21.32-103.62-1-144,13.6-35.01,42.1-72.48,30-117-7.77-40.99-61.08-113.73-116-85Zm-222-12c-1.97,9.02-87.14,64.98-45,57,22.91-24.37,47.54-41.41,74-57,.05-4.53-13.17,5.79-14-3-7.14-1.67-8.8,2.18-15,3Zm40-21c-13.31,17.53,23.78,12.61,20,0-7.73-2.37-11.96-4.01-20,0ZM642.14,44.98c55.56,27.62,123.92,48.26,158.01,107.99,14.01,4.29,21.01,12.99,24.99,24,2.33,8.96,17.62,11,11,22,21.04,6.53,19.68,25.19,36,38,4.05,12.39,6.58,21.8,16,33,2,15.28,20.69,79.81-8,53-27.24-97.55-107.57-196.31-201-239-75.18-36.75-172.13-50.33-266-32-1.62,14.1-13.31,.34-16,5-24.58,1.33-20.77-10.07-49,2.01-1.63,.51-15.93,5.78-8,3.99,5.41,5.69,21.17-9.64,30-5-15.12,13.34-32.92,16.08-51,24.99-15.04,.01-32.21,29.24-45,17.01-11.12,9.65-7.99-2.63,2-3.01-.16-8.15-13.49,7.16-17,8,10.85,24.75-25.9,1.02-22,15,9.06,2.31,12.5,6.34,3,11-81.38,61-120.13,148.51-143,231-39.59-6.76,10.47-61.1,7.99-90,21.49-39.35,16.5-40.37,42.01-67C244.05,47.25,459.28-20.31,642.14,44.98Zm272,165c40.91,74.09,51.65,155.22,54,243-7.6,20.01-18.25,67.18-14.01,75-11.51,9.42-7,2.51-8.99-6,1.88,11.78-13.1,28.61-7,37,10.58,1.41-16.69,41.64-23.99,53-7.97,25.11-26.2,33.81-40.01,52-21.04,37.57-18.72-1.21-37.99,41-30.09,37.74-62.48,62.22-103,73-30.01,11.82-69.97,46.93-104,27.01-7.2-7.07,10.92-12.45-7-8-36.03,12.38-77.96,23.74-119,23.99-78.06-9.12-155.34-16.49-220-52.99-38.21,46.72,23.18,55.81,57,72.99-37.01,9.51-158.83-59.73-210-114.99-27.43-26.72-40.21-54.67-58.01-84.01-5.28-10.58-35.07-43.77-24.01-49,1.65,3.83,9.33,2.9,13.01,3,11.28,11.53,16.45-6.56,3-14-8.06-17.06-13.88-30.18-18-45-12.41-22.84-9.49-64.24-15.99-86,2.57-6.04,.89-26.61-1.01-9-2.55-24.03,13.18-12.43,11.99-57,9.42-24.18,2.61-73.16,29-84,8.06,5.59,3.99,15.27,0,20.01-10.28,28.99-9.49,74.97-15,108-4.31,81.97,16.08,178.37,81.98,230,8.53,13.83,2.6-8.79,18.01,0,13.29,17.56,24.46-16.46,40-8,2.35-2.29,1.8-4.95,2-9-12.81-15.95,17.03-32.94,4-47-3.47-52.09-32.54,7.18-68-67C35.86,218.66,381.44-23.2,665.14,128.98c150.48,67.72,239.3,256.94,174.99,413-49.42,146.12-221.02,246.39-379,228.99-97.82,4.91-172.2-47.18-241.99-91.01,31.72,32.42,65.21,65,105,80.01,111.75,52.97,274.76,52.2,385-27,54.73-32.9,120.66-92.55,144-154,23.06-38.15,34.26-82.88,37-130,6.01-23.52-12.98-72.18,6-93,46.05-9.97,14.08,109.49,16.01,142.99-15.1,41.05-38.59,90.59-50.01,125,9.18-3.46,10.91-15,16-19,15.64-15.17,4.61,15.18-2,21-6.31,3.37,.32,9.01-.99,12.01-4.43-1.04-19.96,22.35-11,24,7.01-7.34,21.24-24.41,21-32,3.53-9.03,26.21-33.53,28.99-53,14.97-7,28.35-178.98,40-129.01,6.77-36.51-4.25-77.37-13.99-100.99-3.16-35.09-4.04-69.67-24.01-96-10.7-26.62-26.38-52.83-40.99-79-13.1-31.81-46.23-36.06-66.01-53.99-31.65-40.26-63.31-65.63-109-76-27.26-9.79-49.33-29.37-79.99-35.01-12.52-26.75,140.73,30.95,141.99,47,58.23,34.01,135.05,84.28,152,156Z" fill="#fdfdfd" fill-rule="evenodd"/>
  </g>
</svg>