<?xml version="1.0" encoding="utf-8"?>
<!-- Generator: Adobe Illustrator 26.2.0, SVG Export Plug-In . SVG Version: 6.00 Build 0)  -->
<svg version="1.1" id="Livello_1" xmlns="http://www.w3.org/2000/svg" xmlns:xlink="http://www.w3.org/1999/xlink" x="0px" y="0px"
	 viewBox="0 0 634.1 141.1" style="enable-background:new 0 0 634.1 141.1;" xml:space="preserve">
<style type="text/css">
	.st0{fill:#fdfdfd;}
</style>
<g>
	<g>
		<path class="st0" d="M150.8,26.3c0,16.6-10.1,25.5-22.5,25.5c-12.9,0-21.8-10-21.8-24.6c0-15.4,9.5-25.5,22.5-25.5
			C142.1,1.7,150.8,11.9,150.8,26.3z M113.1,27.1c0,10.4,5.6,19.7,15.5,19.7c10,0,15.6-9.1,15.6-20.2c0-9.7-5-19.8-15.5-19.8
			C118.2,6.8,113.1,16.5,113.1,27.1z"/>
		<path class="st0" d="M186.8,43.4c2.8,1.8,6.9,3.1,11.2,3.1c6.4,0,10.2-3.3,10.2-8.3c0-4.5-2.6-7.2-9.2-9.6
			c-7.9-2.8-12.8-7-12.8-13.8c0-7.5,6.3-13.2,15.7-13.2c4.9,0,8.6,1.1,10.7,2.4l-1.8,5.1c-1.6-0.9-4.8-2.3-9.2-2.3
			c-6.7,0-9.2,4-9.2,7.3c0,4.5,2.9,6.7,9.6,9.3c8.2,3.2,12.4,7.2,12.4,14.3c0,7.4-5.5,14-17,14c-4.7,0-9.8-1.4-12.4-3.2L186.8,43.4z
			"/>
		<path class="st0" d="M261.2,7.8h-14.8V2.5h35.9v5.3h-14.9v43.2h-6.3L261.2,7.8L261.2,7.8z"/>
		<path class="st0" d="M341.6,28.3h-18.8v17.5h21v5.2h-27.3V2.5h26.2v5.2h-19.9v15.4h18.8V28.3z"/>
		<path class="st0" d="M380.8,3.2c3.2-0.6,7.8-1,12-1c6.6,0,11,1.3,14.1,4c2.4,2.1,3.8,5.4,3.8,9.2c0,6.4-4.1,10.6-9.1,12.4v0.2
			c3.7,1.3,5.9,4.8,7.1,9.8c1.6,6.8,2.8,11.4,3.7,13.3h-6.5c-0.8-1.4-1.9-5.5-3.2-11.6c-1.4-6.7-4.1-9.2-9.7-9.4H387v21h-6.3V3.2z
			 M387,25.3h6.4c6.7,0,11-3.7,11-9.2c0-6.3-4.5-9-11.2-9c-3,0-5.1,0.3-6.2,0.5V25.3z"/>
		<path class="st0" d="M454.6,2.5v48.5h-6.3V2.5H454.6z"/>
		<path class="st0" d="M502.2,35.8l-5,15.3h-6.5l16.5-48.5h7.5l16.6,48.5h-6.7l-5.2-15.2C519.4,35.8,502.2,35.8,502.2,35.8z
			 M518.1,30.9l-4.8-14c-1-3.2-1.8-6.1-2.5-8.9h-0.2c-0.7,2.8-1.5,5.8-2.4,8.8l-4.8,14.1H518.1z"/>
		<path class="st0" d="M52.2,117.7c-0.3-6.3-0.6-13.8-0.6-20.4h-0.2c-1.6,5.9-3.6,12.5-5.7,18.6l-7.1,21h-6.8l-6.4-20.7
			c-1.9-6.2-3.6-12.8-4.9-18.9h-0.2c-0.2,6.3-0.5,14.1-0.9,20.7l-1.1,19.5H10l3.2-48.5h11.6l6.3,19.5c1.7,5.7,3.3,11.5,4.5,16.9h0.2
			c1.3-5.3,3-11.2,4.8-16.9l6.7-19.4h11.5l2.8,48.5h-8.6L52.2,117.7z"/>
		<path class="st0" d="M82.2,123.7l-4.1,13.7h-9.2l15.6-48.5h11.3l15.8,48.5h-9.5l-4.4-13.7H82.2z M96.2,117l-3.8-12
			c-0.9-3-1.7-6.3-2.5-9.1h-0.2c-0.7,2.8-1.4,6.2-2.3,9.1l-3.8,12H96.2z"/>
		<path class="st0" d="M120.1,89.6c3.9-0.6,8.9-1,14.1-1c9.1,0,15.3,1.9,19.8,5.6c4.7,3.8,7.6,9.6,7.6,17.9c0,8.7-3,15.1-7.6,19.3
			c-4.9,4.4-12.6,6.6-22,6.6c-5.2,0-9.1-0.3-12-0.6C120.1,137.3,120.1,89.6,120.1,89.6z M129,130.7c1.2,0.2,3.1,0.2,4.9,0.2
			c11.5,0.1,18.4-6.3,18.4-18.6c0.1-10.7-6.1-16.9-17.3-16.9c-2.8,0-4.8,0.2-6.1,0.5L129,130.7L129,130.7z"/>
		<path class="st0" d="M214.2,112.7c0,16.2-9.9,25.5-23.2,25.5c-13.7,0-22.4-10.5-22.4-24.7c0-14.9,9.4-25.4,23.1-25.4
			C205.8,88.1,214.2,98.8,214.2,112.7z M177.9,113.4c0,9.9,5,17.8,13.5,17.8c8.6,0,13.4-8,13.4-18.1c0-9.2-4.5-17.8-13.4-17.8
			C182.6,95.2,177.9,103.4,177.9,113.4z"/>
		<path class="st0" d="M223.6,137.5V88.9h10.1l12.5,20.8c3.2,5.4,6,11,8.3,16.3l0.2-0.1c-0.6-6.4-0.8-12.7-0.8-20.1V88.9h8.2v48.5
			h-9.2l-12.7-21.4c-3.1-5.3-6.3-11.2-8.7-16.7l-0.2,0.1c0.4,6.3,0.5,12.7,0.5,20.7v17.4H223.6z"/>
		<path class="st0" d="M274,137.5V88.9h10.1l12.5,20.8c3.2,5.4,6,11,8.3,16.3l0.2-0.1c-0.6-6.4-0.8-12.7-0.8-20.1V88.9h8.2v48.5
			h-9.2l-12.7-21.4c-3.1-5.3-6.3-11.2-8.7-16.7l-0.2,0.1c0.4,6.3,0.5,12.7,0.5,20.7v17.4H274z"/>
		<path class="st0" d="M334.2,123.7l-4.1,13.7h-9.2l15.6-48.5h11.3l15.8,48.5H354l-4.4-13.7H334.2z M348.2,117l-3.8-12
			c-0.9-3-1.7-6.3-2.5-9.1h-0.2c-0.7,2.8-1.5,6.2-2.3,9.1l-3.8,12H348.2z"/>
		<path class="st0" d="M388.8,89.6c4-0.6,8.9-1,14.1-1c9.1,0,15.3,1.9,19.8,5.6c4.7,3.8,7.6,9.6,7.6,17.9c0,8.7-3,15.1-7.6,19.3
			c-4.9,4.4-12.5,6.6-22,6.6c-5.2,0-9.1-0.3-12-0.6V89.6z M397.7,130.7c1.2,0.2,3.1,0.2,4.9,0.2c11.5,0.1,18.4-6.3,18.4-18.6
			c0-10.7-6.1-16.9-17.3-16.9c-2.8,0-4.8,0.2-6,0.5L397.7,130.7L397.7,130.7z"/>
		<path class="st0" d="M449.5,123.7l-4.1,13.7h-9.2l15.6-48.5h11.3l15.8,48.5h-9.5l-4.4-13.7H449.5z M463.5,117l-3.8-12
			c-0.9-3-1.7-6.3-2.5-9.1H457c-0.7,2.8-1.5,6.2-2.3,9.1l-3.8,12H463.5z"/>
		<path class="st0" d="M504.1,89.5c3.2-0.6,7.6-1,13.6-1c6.5,0,11.2,1.4,14.3,4c2.9,2.4,4.8,6.2,4.8,10.8c0,4.6-1.4,8.4-4.1,11
			c-3.6,3.5-9,5.2-15.3,5.2c-1.7,0-3.1-0.1-4.3-0.3v18.3h-8.8L504.1,89.5L504.1,89.5z M512.9,112.2c1.1,0.3,2.5,0.4,4.3,0.4
			c6.6,0,10.7-3.3,10.7-9c0-5.3-3.7-8.2-9.9-8.2c-2.4,0-4.2,0.2-5.1,0.4V112.2z"/>
		<path class="st0" d="M573.3,115.9H555v14.2h20.5v7.3h-29.3V88.9h28.2v7.3H555v12.5h18.3V115.9z"/>
		<path class="st0" d="M628.1,112.7c0,16.2-9.8,25.5-23.2,25.5c-13.7,0-22.4-10.5-22.4-24.7c0-14.9,9.4-25.4,23.1-25.4
			C619.8,88.1,628.1,98.8,628.1,112.7z M591.8,113.4c0,9.9,5,17.8,13.5,17.8c8.6,0,13.4-8,13.4-18.1c0-9.2-4.5-17.8-13.4-17.8
			C596.6,95.2,591.8,103.4,591.8,113.4z"/>
	</g>
</g>
</svg>
