<?xml version="1.0" encoding="utf-8"?>
<!-- Generator: Adobe Illustrator 26.2.0, SVG Export Plug-In . SVG Version: 6.00 Build 0)  -->
<svg version="1.1" id="Livello_1" xmlns="http://www.w3.org/2000/svg" xmlns:xlink="http://www.w3.org/1999/xlink" x="0px" y="0px"
	 viewBox="0 0 634.12 167.06" style="enable-background:new 0 0 634.12 167.06;" xml:space="preserve">
<style type="text/css">
	.st0{fill:#fdfdfd;}
</style>
<g>
	<g>
		<path class="st0" d="M150.75,41.3c0,16.65-10.15,25.54-22.52,25.54c-12.87,0-21.81-9.96-21.81-24.63
			c0-15.38,9.52-25.48,22.47-25.48C142.15,16.73,150.75,26.88,150.75,41.3z M113.05,42.07c0,10.38,5.64,19.68,15.53,19.68
			c9.96,0,15.55-9.14,15.55-20.17c0-9.66-5.04-19.75-15.47-19.75C118.23,21.83,113.05,31.45,113.05,42.07z"/>
		<path class="st0" d="M186.84,58.42c2.8,1.75,6.89,3.14,11.2,3.14c6.41,0,10.18-3.35,10.18-8.26c0-4.5-2.63-7.15-9.18-9.6
			c-7.92-2.81-12.83-6.98-12.83-13.77c0-7.55,6.28-13.16,15.73-13.16c4.93,0,8.59,1.14,10.71,2.35l-1.75,5.14
			c-1.55-0.92-4.79-2.3-9.16-2.3c-6.67,0-9.18,3.95-9.18,7.26c0,4.5,2.95,6.73,9.65,9.32c8.23,3.23,12.38,7.18,12.38,14.3
			c0,7.44-5.48,13.99-16.98,13.99c-4.69,0-9.81-1.42-12.4-3.17L186.84,58.42z"/>
		<path class="st0" d="M261.21,22.82h-14.78v-5.29h35.94v5.29h-14.85v43.24h-6.3V22.82z"/>
		<path class="st0" d="M341.65,43.3h-18.82v17.53h21.04v5.22h-27.34V17.52h26.24v5.22h-19.94v15.37h18.82V43.3z"/>
		<path class="st0" d="M380.76,18.19c3.18-0.64,7.75-1.04,12.05-1.04c6.65,0,11.04,1.27,14.06,3.99c2.4,2.12,3.81,5.43,3.81,9.23
			c0,6.38-4.07,10.62-9.15,12.37v0.18c3.7,1.3,5.94,4.8,7.12,9.83c1.6,6.78,2.75,11.42,3.73,13.32h-6.5
			c-0.76-1.4-1.86-5.54-3.19-11.62c-1.44-6.65-4.07-9.22-9.74-9.41h-5.93v21.03h-6.26V18.19z M387.02,40.28h6.41
			c6.71,0,10.96-3.65,10.96-9.22c0-6.3-4.55-9.04-11.16-9.05c-3.04,0-5.14,0.28-6.21,0.55V40.28z"/>
		<path class="st0" d="M454.59,17.52v48.53h-6.3V17.52H454.59z"/>
		<path class="st0" d="M502.18,50.8l-5.01,15.25h-6.5l16.51-48.53h7.54l16.58,48.53h-6.7l-5.2-15.25H502.18z M518.11,45.9
			l-4.81-13.97c-1.05-3.18-1.78-6.07-2.5-8.85h-0.17c-0.7,2.84-1.45,5.8-2.41,8.77l-4.78,14.05H518.11z"/>
		<path class="st0" d="M52.16,132.66c-0.29-6.27-0.61-13.8-0.58-20.42h-0.2c-1.6,5.95-3.63,12.5-5.73,18.64l-7.13,21h-6.82
			l-6.43-20.72c-1.9-6.23-3.64-12.82-4.91-18.93h-0.16c-0.21,6.35-0.5,14.11-0.87,20.71l-1.08,19.5H10l3.23-48.53h11.65l6.32,19.49
			c1.74,5.73,3.3,11.49,4.46,16.9h0.21c1.3-5.3,2.97-11.23,4.85-16.94l6.73-19.45h11.5l2.79,48.53H53.1L52.16,132.66z"/>
		<path class="st0" d="M82.25,138.74l-4.14,13.72h-9.17l15.57-48.53h11.29l15.77,48.53h-9.52l-4.39-13.72H82.25z M96.2,132.04
			l-3.82-11.96c-0.93-3.01-1.73-6.31-2.47-9.12h-0.16c-0.7,2.85-1.45,6.21-2.3,9.09l-3.75,11.99H96.2z"/>
		<path class="st0" d="M120.11,104.59c3.95-0.64,8.89-1.04,14.14-1.04c9.11,0,15.31,1.89,19.78,5.61c4.73,3.84,7.61,9.62,7.61,17.86
			c0,8.7-2.97,15.13-7.56,19.31c-4.87,4.37-12.55,6.61-21.98,6.61c-5.16,0-9.07-0.27-11.99-0.64V104.59z M128.97,145.69
			c1.24,0.21,3.13,0.24,4.94,0.24c11.51,0.06,18.36-6.33,18.36-18.61c0.05-10.7-6.12-16.88-17.26-16.88c-2.78,0-4.76,0.25-6.05,0.52
			V145.69z"/>
		<path class="st0" d="M214.17,127.7c0,16.25-9.85,25.54-23.22,25.54c-13.71,0-22.39-10.47-22.39-24.68
			c0-14.9,9.42-25.43,23.11-25.43C205.82,103.13,214.17,113.83,214.17,127.7z M177.92,128.38c0,9.9,5,17.77,13.48,17.77
			c8.56,0,13.41-7.97,13.41-18.12c0-9.16-4.54-17.81-13.39-17.81C182.65,110.22,177.92,118.41,177.92,128.38z"/>
		<path class="st0" d="M223.57,152.46v-48.53h10.13l12.54,20.83c3.19,5.36,6.02,11,8.26,16.27l0.17-0.05
			c-0.63-6.45-0.79-12.7-0.79-20.11v-16.94h8.2v48.53h-9.19l-12.66-21.35c-3.1-5.33-6.32-11.24-8.7-16.74l-0.23,0.05
			c0.35,6.3,0.47,12.71,0.47,20.68v17.36H223.57z"/>
		<path class="st0" d="M274.04,152.46v-48.53h10.13l12.54,20.83c3.19,5.36,6.02,11,8.26,16.27l0.17-0.05
			c-0.63-6.45-0.79-12.7-0.79-20.11v-16.94h8.2v48.53h-9.19l-12.66-21.35c-3.1-5.33-6.32-11.24-8.7-16.74l-0.23,0.05
			c0.35,6.3,0.47,12.71,0.47,20.68v17.36H274.04z"/>
		<path class="st0" d="M334.24,138.74l-4.14,13.72h-9.17l15.57-48.53h11.29l15.77,48.53h-9.52l-4.39-13.72H334.24z M348.2,132.04
			l-3.82-11.96c-0.93-3.01-1.73-6.31-2.47-9.12h-0.16c-0.71,2.85-1.45,6.21-2.31,9.09l-3.75,11.99H348.2z"/>
		<path class="st0" d="M388.81,104.59c3.95-0.64,8.89-1.04,14.14-1.04c9.1,0,15.31,1.89,19.78,5.61c4.73,3.84,7.61,9.62,7.61,17.86
			c0,8.7-2.97,15.13-7.56,19.31c-4.87,4.37-12.55,6.61-21.98,6.61c-5.16,0-9.07-0.27-11.99-0.64V104.59z M397.67,145.69
			c1.24,0.21,3.13,0.24,4.94,0.24c11.51,0.06,18.36-6.33,18.36-18.61c0.05-10.7-6.12-16.88-17.26-16.88c-2.78,0-4.76,0.25-6.05,0.52
			V145.69z"/>
		<path class="st0" d="M449.52,138.74l-4.14,13.72h-9.17l15.57-48.53h11.29l15.77,48.53h-9.52l-4.39-13.72H449.52z M463.47,132.04
			l-3.82-11.96c-0.93-3.01-1.73-6.31-2.47-9.12h-0.16c-0.71,2.85-1.45,6.21-2.31,9.09l-3.75,11.99H463.47z"/>
		<path class="st0" d="M504.08,104.54c3.22-0.55,7.61-1,13.58-1c6.47,0,11.2,1.36,14.29,3.97c2.89,2.37,4.75,6.18,4.75,10.75
			c0,4.6-1.44,8.39-4.13,10.99c-3.57,3.53-9.05,5.22-15.34,5.22c-1.66,0-3.14-0.08-4.34-0.34v18.32h-8.8V104.54z M512.88,127.17
			c1.13,0.3,2.54,0.4,4.34,0.4c6.62,0,10.67-3.3,10.67-8.99c0-5.35-3.74-8.22-9.88-8.22c-2.44,0-4.2,0.21-5.13,0.42V127.17z"/>
		<path class="st0" d="M573.29,130.93H555v14.24h20.45v7.29h-29.32v-48.53h28.25v7.29H555v12.48h18.29V130.93z"/>
		<path class="st0" d="M628.1,127.7c0,16.25-9.85,25.54-23.22,25.54c-13.71,0-22.39-10.47-22.39-24.68
			c0-14.9,9.42-25.43,23.11-25.43C619.75,103.13,628.1,113.83,628.1,127.7z M591.85,128.38c0,9.9,5,17.77,13.48,17.77
			c8.56,0,13.41-7.97,13.41-18.12c0-9.16-4.54-17.81-13.39-17.81C596.57,110.22,591.85,118.41,591.85,128.38z"/>
	</g>
</g>
</svg>
